TITLE ""
FILE "Disc1Track08.mp3" MP3
  TRACK 01 AUDIO
    TITLE "Disc1Track08_01"
    INDEX 01 00:00:00
  TRACK 02 AUDIO
    TITLE "Disc1Track08_02"
    INDEX 01 00:01:06
  TRACK 03 AUDIO
    TITLE "Disc1Track08_03"
    INDEX 01 00:02:09
  TRACK 04 AUDIO
    TITLE "Disc1Track08_04"
    INDEX 01 00:03:26
  TRACK 05 AUDIO
    TITLE "Disc1Track08_05"
    INDEX 01 00:05:31
  TRACK 06 AUDIO
    TITLE "Disc1Track08_06"
    INDEX 01 00:05:66
  TRACK 07 AUDIO
    TITLE "Disc1Track08_07"
    INDEX 01 00:07:18
  TRACK 08 AUDIO
    TITLE "Disc1Track08_08"
    INDEX 01 00:09:13
  TRACK 09 AUDIO
    TITLE "Disc1Track08_09"
    INDEX 01 00:10:40
  TRACK 10 AUDIO
    TITLE "Disc1Track08_10"
    INDEX 01 00:14:36
  TRACK 11 AUDIO
    TITLE "Disc1Track08_11"
    INDEX 01 00:14:67
  TRACK 12 AUDIO
    TITLE "Disc1Track08_12"
    INDEX 01 00:16:27
  TRACK 13 AUDIO
    TITLE "Disc1Track08_13"
    INDEX 01 00:18:28
  TRACK 14 AUDIO
    TITLE "Disc1Track08_14"
    INDEX 01 00:19:63
  TRACK 15 AUDIO
    TITLE "Disc1Track08_15"
    INDEX 01 00:20:19
  TRACK 16 AUDIO
    TITLE "Disc1Track08_16"
    INDEX 01 00:21:40
  TRACK 17 AUDIO
    TITLE "Disc1Track08_17"
    INDEX 01 00:23:45
  TRACK 18 AUDIO
    TITLE "Disc1Track08_18"
    INDEX 01 00:24:66
  TRACK 19 AUDIO
    TITLE "Disc1Track08_19"
    INDEX 01 00:28:54
  TRACK 20 AUDIO
    TITLE "Disc1Track08_20"
    INDEX 01 00:29:12
  TRACK 21 AUDIO
    TITLE "Disc1Track08_21"
    INDEX 01 00:30:43
  TRACK 22 AUDIO
    TITLE "Disc1Track08_22"
    INDEX 01 00:31:56
  TRACK 23 AUDIO
    TITLE "Disc1Track08_23"
    INDEX 01 00:33:14
  TRACK 24 AUDIO
    TITLE "Disc1Track08_24"
    INDEX 01 00:33:45
  TRACK 25 AUDIO
    TITLE "Disc1Track08_25"
    INDEX 01 00:34:68
  TRACK 26 AUDIO
    TITLE "Disc1Track08_26"
    INDEX 01 00:37:02
  TRACK 27 AUDIO
    TITLE "Disc1Track08_27"
    INDEX 01 00:38:27
  TRACK 28 AUDIO
    TITLE "Disc1Track08_28"
    INDEX 01 00:38:58
  TRACK 29 AUDIO
    TITLE "Disc1Track08_29"
    INDEX 01 00:40:04
  TRACK 30 AUDIO
    TITLE "Disc1Track08_30"
    INDEX 01 00:41:13
  TRACK 31 AUDIO
    TITLE "Disc1Track08_31"
    INDEX 01 00:42:32
  TRACK 32 AUDIO
    TITLE "Disc1Track08_32"
    INDEX 01 00:46:38
  TRACK 33 AUDIO
    TITLE "Disc1Track08_33"
    INDEX 01 00:46:71
  TRACK 34 AUDIO
    TITLE "Disc1Track08_34"
    INDEX 01 00:48:19
  TRACK 35 AUDIO
    TITLE "Disc1Track08_35"
    INDEX 01 00:50:32
  TRACK 36 AUDIO
    TITLE "Disc1Track08_36"
    INDEX 01 00:51:53
  TRACK 37 AUDIO
    TITLE "Disc1Track08_37"
    INDEX 01 00:55:05
  TRACK 38 AUDIO
    TITLE "Disc1Track08_38"
    INDEX 01 00:55:47
  TRACK 39 AUDIO
    TITLE "Disc1Track08_39"
    INDEX 01 00:57:04
  TRACK 40 AUDIO
    TITLE "Disc1Track08_40"
    INDEX 01 00:58:06
  TRACK 41 AUDIO
    TITLE "Disc1Track08_41"
    INDEX 01 00:59:39
  TRACK 42 AUDIO
    TITLE "Disc1Track08_42"
    INDEX 01 01:02:74
